<?xml version="1.0" encoding="utf-8"?>
<!-- Generator: Adobe Illustrator 24.3.0, SVG Export Plug-In . SVG Version: 6.00 Build 0)  -->
<svg version="1.1" id="Layer_1" xmlns="http://www.w3.org/2000/svg" xmlns:xlink="http://www.w3.org/1999/xlink" x="0px" y="0px"
	 viewBox="0 0 182.9 119.4" style="enable-background:new 0 0 182.9 119.4;" xml:space="preserve">
<style type="text/css">
	.st0{fill:#FFFFFF;}
</style>
<g>
	<path class="st0" d="M49.9,102.9c0-1.4,3,0.3,4.8,1c2.1,0.9,4.7,2.1,7.9,3.1c8.6,3,17.3,3.6,26.1,2c7.5-1.4,16.7-4.3,23-9
		c4.7-3.3,8.9-8.2,14.6-9.6c3.1-0.8,9.3-1,6.9,4c-1.9,3.7-4.8,6.9-7.9,9.5c-1.9,1.7-4.5,3.9-7.1,5.6c-10.1,7.3-22.8,10.1-35.1,9.7
		c-9.6-0.5-20.5-3.2-28.1-9.7C53.2,107.9,50.4,105.3,49.9,102.9L49.9,102.9z"/>
	<path class="st0" d="M53.9,45.5c1.6-5,13-23.9,23.3-32.7c6-5.6,12.3-11,20.6-12.3c4.6-0.9,10.7-0.3,14.9,1.6c2.7,1.2,5.7,3.8,7.8,6
		c3.7,4,6.4,9.3,9.1,14.2c1.4,2.7,2.4,5.5,3.5,8.3c1.6,3.7,0.3,4-3.1,4.2c-5.3,0.5-6.8-0.1-9.1-4.8c-1.3-2.5-2.9-5.3-4.4-7.9
		c-1.5-2.4-2.6-4.9-4.5-6.8c-2.8-2.9-8-5-13.2-3.5c-4.6,1.3-8.3,4.3-12.3,7.6C81.2,24,76.3,29.6,72.8,34.7
		c-3.5,5.2-13.2,20-16.5,27.6C56,61.8,56,61,55.9,60.4C55.4,56.1,54.2,49.4,53.9,45.5L53.9,45.5z"/>
	<path class="st0" d="M0,81.8l15.3-42.6h9.3L40,81.8h-9.3L19.9,48c-2.1,6.7-4.4,13.8-6.5,20.4c-0.5,1.5,9.6-4.5,9.2-3
		c-0.7,3.6-11.2,9.5-11.5,10.2c-0.8,2.4-1.2,3.7-2,6.1H0V81.8z"/>
	<path class="st0" d="M54.8,81.8c-3.1,0-5.5-0.4-7.3-1.1c-1.7-0.7-2.9-1.9-3.6-3.5c-0.7-1.6-1-3.6-1-6.2V39.2h8.3v31.3
		c0,1.6,0.2,2.8,0.7,3.6c0.5,0.8,1.5,1.1,3.1,1.1h2v6.5h-2.2V81.8z"/>
	<path class="st0" d="M74.3,81.8c-3,0-5.2-1-6.8-2.9c-1.6-1.9-2.4-4.7-2.4-8.3v-20h8.3v19c0,1.1,0.1,2,0.4,2.8s0.7,1.4,1.3,1.9
		c0.6,0.5,1.4,0.7,2.4,0.7c1.5,0,2.8-0.4,3.9-1.1s2-1.6,2.8-2.7V50.6h8.4v30.9h-8.1l-0.1-4.6c-1,1.3-2.3,2.4-4,3.5
		C78.8,81.3,76.8,81.8,74.3,81.8"/>
	<path class="st0" d="M98.8,81.8V39.2h15.5c2.6,0,4.9,0.5,7.1,1.5c2.1,1,3.8,2.5,5.1,4.5c1.3,2,1.9,4.6,1.9,7.7
		c0,3.1-0.6,5.7-1.9,7.7s-3,3.5-5.1,4.5s-4.5,1.5-7.1,1.5H107v15.1L98.8,81.8L98.8,81.8z M107.1,59.5h6.5c1.9,0,3.5-0.5,4.7-1.6
		s1.8-2.7,1.8-4.9s-0.6-3.9-1.8-5c-1.2-1.1-2.8-1.6-4.6-1.6h-6.5L107.1,59.5L107.1,59.5z"/>
	<path class="st0" d="M131.5,81.8V50.9h8l0.2,5.3c0.8-1.8,2-3.2,3.6-4.2s3.6-1.5,5.8-1.5h0.6v7.1h-0.8c-1.2,0-2.4,0.1-3.6,0.3
		c-1.1,0.2-2.2,0.6-3.1,1.1c-0.9,0.5-1.7,1.3-2.4,2.2v20.5h-8.3V81.8z"/>
	<path class="st0" d="M167.8,81.8c-3,0-5.6-0.6-7.9-1.8c-2.2-1.2-4-3-5.2-5.4s-1.9-5.2-1.9-8.6s0.6-6.3,1.9-8.6
		c1.2-2.4,3-4.2,5.2-5.5s4.9-1.9,7.9-1.9s5.7,0.6,8,1.9c2.3,1.3,4,3.1,5.3,5.5s1.9,5.3,1.9,8.6c0,3.4-0.6,6.2-1.9,8.6
		c-1.3,2.4-3,4.2-5.3,5.4C173.5,81.2,170.8,81.8,167.8,81.8 M167.8,75.4c1.7,0,3-0.4,3.9-1.3s1.6-2,2-3.4s0.6-3,0.6-4.8
		c0-1.7-0.2-3.3-0.6-4.8c-0.4-1.4-1.1-2.6-2-3.4c-0.9-0.9-2.3-1.3-3.9-1.3c-1.6,0-2.8,0.4-3.8,1.3c-0.9,0.9-1.6,2-2,3.4
		s-0.6,3-0.6,4.8s0.2,3.3,0.6,4.8c0.4,1.4,1.1,2.6,2,3.4C164.9,75,166.2,75.4,167.8,75.4"/>
</g>
</svg>
